<svg id="_レイヤー_2" data-name="レイヤー 2" xmlns="http://www.w3.org/2000/svg" viewBox="0 0 54.29 54.29"><defs><style>.cls-2{stroke-width:0;fill:#fff}</style></defs><g id="contents"><path d="M27.14 53.79C12.45 53.79.5 41.83.5 27.14S12.45.5 27.14.5s26.64 11.95 26.64 26.64-11.95 26.64-26.64 26.64z" stroke-width="0"/><path class="cls-2" d="M27.14 1c14.42 0 26.14 11.73 26.14 26.14S41.55 53.28 27.14 53.28 1 41.56 1 27.14 12.73 1 27.14 1m0-1C12.15 0 0 12.15 0 27.14s12.15 27.14 27.14 27.14 27.14-12.15 27.14-27.14S42.13 0 27.14 0z"/><path class="cls-2" d="M20.56 36.19l18.09-9.05-18.09-9.04v18.09z"/></g></svg>