<svg id="_レイヤー_2" data-name="レイヤー 2" xmlns="http://www.w3.org/2000/svg" viewBox="0 0 15 20"><defs><style>.cls-1{fill:#005eb8;stroke-width:0}</style></defs><g id="contents"><path class="cls-1" d="M10.56 12.6c-.34-.02-1.14.03-1.95.18-.47-.47-.87-1.07-1.17-1.56.96-2.77.35-3.56-.47-3.56-.64 0-.97.68-.89 1.43.04.38.36 1.17.75 1.93-.24.64-.67 1.71-1.1 2.49-.5.15-.93.32-1.24.46-1.54.72-1.66 1.67-1.34 2.08.61.77 1.9.11 3.2-2.22.89-.25 2.06-.59 2.17-.59.01 0 .03 0 .05.01.65.57 1.41 1.23 2.04 1.31.91.13 1.43-.54 1.4-.95-.04-.41-.28-.95-1.43-1.02zm-5.75 2.51c-.38.45-.98.88-1.2.73-.21-.14-.25-.55.23-1.02.48-.46 1.29-.71 1.41-.75.14-.05.18 0 .18.07s-.25.52-.63.97zM6.45 9.1c-.04-.45.05-.88.43-.93.38-.05.55.38.41 1.07-.14.7-.22 1.16-.29 1.22-.07.05-.14-.13-.14-.13-.14-.29-.38-.79-.41-1.23zm.15 4.2c.2-.32.7-1.63.7-1.63.11.2.95 1.2.95 1.2s-1.29.29-1.65.43zm3.89.57c-.54-.07-1.45-.72-1.45-.72-.13-.05 1-.21 1.43-.18.55.04.75.27.75.5s-.2.46-.73.39z"/><path class="cls-1" d="M15 5V3.75L11.25 0H2.5A2.5 2.5 0 000 2.5v15A2.5 2.5 0 002.5 20h10a2.5 2.5 0 002.5-2.5V5zm-1.25 12.5c0 .69-.56 1.25-1.25 1.25h-10c-.69 0-1.25-.56-1.25-1.25v-15c0-.69.56-1.25 1.25-1.25H10V3.1c0 1.05.85 1.9 1.9 1.9h1.85v12.5z"/></g></svg>