<svg data-name="レイヤー 2" xmlns="http://www.w3.org/2000/svg" viewBox="0 0 149.19 40"><path d="M7.46 37.46H1.97c-.7.06-1.22.67-1.16 1.37.05.62.54 1.11 1.16 1.16h10.68c3.85 0 4.31-3.09 4.31-3.09l4.61-19.86c.01-.11.01-.22 0-.33 0-.8-.65-1.45-1.45-1.45H14.4c-.43.01-.8.32-.89.74l-1.78 6.95-3.08-7.12c-.18-.32-.52-.52-.89-.52h-5.2c-.82 0-1.49.67-1.51 1.49 0 .14.02.28.05.42l6.35 20.23zm46.7 0h-5.5c-.7.06-1.22.67-1.16 1.37.05.62.54 1.11 1.16 1.16h10.68c3.85 0 4.31-3.09 4.31-3.09l4.6-19.86c.01-.11.01-.22 0-.33 0-.8-.65-1.45-1.45-1.45h-5.72c-.44 0-.82.31-.89.74l-1.78 6.95-3.08-7.12c-.18-.32-.52-.52-.89-.52h-5.16c-.85 0-1.53.69-1.53 1.54 0 .14.02.28.05.42l6.36 20.19zm-28.03 1.07c-1.33 0-2.41-1.07-2.41-2.4V16.35c0-.59.47-1.07 1.06-1.08h7.92c.59 0 1.07.48 1.07 1.07v17.48a1.404 1.404 0 002.8 0V16.34c0-.59.48-1.08 1.08-1.08h6.81c.59 0 1.08.48 1.08 1.08v21.14c-.02.58-.5 1.04-1.08 1.04H26.12zm64.89-23.25H71.35c-.75 0-1.37.6-1.37 1.35v6.68c0 .75.62 1.36 1.37 1.36h6.33c.74 0 1.33-.6 1.33-1.33v-2.92c0-.66.36-1.26.94-1.57a2.78 2.78 0 011.89-.35c1.89.29 1.78 2.56 1.78 2.56.15 1.34-.61 2.61-1.85 3.13l-10.23 4.63a2.52 2.52 0 00-1.71 2.23v6.06c-.03.75.55 1.38 1.3 1.4h10.48c.5 0 .96-.27 1.19-.71.24.44.69.71 1.19.71h7.05c.75.01 1.36-.59 1.37-1.33V16.65c0-.76-.6-1.37-1.36-1.38h-.04zm-7.39 17.44c.08 1.28-.89 2.38-2.17 2.46-1.28.08-2.38-.89-2.46-2.17v-2.65a2.318 2.318 0 012.46-2.17c1.17.07 2.1 1 2.17 2.17v2.36zm64.18-17.44h-19.67c-.75 0-1.36.6-1.36 1.34v6.7c0 .75.61 1.36 1.36 1.36h6.33c.74 0 1.34-.6 1.34-1.34v-2.91c0-.66.36-1.26.94-1.57.56-.34 1.22-.46 1.87-.35 1.9.29 1.78 2.56 1.78 2.56.15 1.34-.6 2.61-1.84 3.13l-10.24 4.63c-.97.33-1.64 1.21-1.71 2.23v6.06c-.03.75.55 1.38 1.3 1.41h10.49c.5 0 .96-.27 1.19-.71.24.44.69.71 1.19.71h7.05c.75 0 1.35-.61 1.35-1.35V16.72c.02-.76-.57-1.4-1.33-1.42h-.05zm-7.35 17.44c.08 1.28-.89 2.38-2.17 2.46-1.28.08-2.38-.89-2.46-2.17v-2.65a2.318 2.318 0 012.46-2.17c1.17.07 2.1 1 2.17 2.17v2.36zm-26.69-16.23c0-.67.54-1.21 1.21-1.22h6.92c.67 0 1.21.55 1.22 1.22v20.8c0 .68-.54 1.23-1.22 1.24h-5.47c-.68 0-1.23-.55-1.23-1.23V21.16a.791.791 0 00-.86-.7c-.37.04-.66.33-.7.7v16.13c0 .68-.54 1.23-1.22 1.24h-5.37c-.67 0-1.22-.55-1.22-1.22V21.17a.791.791 0 00-.86-.7c-.37.04-.66.33-.7.7V37.3c0 .67-.53 1.22-1.2 1.24h-6.09c-.67 0-1.21-.55-1.21-1.23V16.5c0-.67.55-1.22 1.23-1.22h6.54c.67 0 1.21.55 1.22 1.22 0-.67.55-1.22 1.23-1.22h6.48c.68-.03 1.25.49 1.29 1.16v.05zM4.72 5.69v3.34H3.04V5.69L0 .6h1.96l1.98 3.56L5.93.6h1.78L4.72 5.69zm5.54 3.48a3.064 3.064 0 01-3.25-2.86v-.36c-.1-1.71 1.2-3.18 2.91-3.29h.3a3.105 3.105 0 013.23 2.97v.32c.09 1.69-1.22 3.13-2.91 3.22h-.28zm0-5.25c-.91.05-1.6.83-1.55 1.74v.1c0 1.01.31 2.15 1.54 2.15s1.56-1.13 1.56-2.16c.11-.9-.53-1.72-1.44-1.83-.04 0-.08 0-.12-.01zm8.5 5.1v-.89c-.48.65-1.23 1.03-2.04 1.04-1.49 0-2.09-1.09-2.09-2.44V2.8h1.6v3.33c0 .75 0 1.78 1.03 1.78 2.02 0 1.41-4.07 1.41-5.11h1.6v6.23h-1.52zm5.92-4.82c-1.82 0-1.31 3.92-1.31 4.82h-1.6V2.79h1.42v1.42c.14-.84.83-1.48 1.68-1.56.16 0 .33 0 .49.05v1.62c-.21-.1-.45-.14-.69-.13zm6.86 1.62v3.2h-1.67V.6h2.12c1.78 0 3.48.49 3.48 2.54.02 2.47-1.98 2.68-3.92 2.68zm.59-3.9h-.59v2.57h.59c.89 0 1.59-.29 1.59-1.25S33 1.92 32.13 1.92zm7.8 7.1c-.05-.31-.07-.62-.07-.93-.4.69-1.14 1.11-1.94 1.09-1.08.1-2.04-.7-2.14-1.78v-.07c0-2.26 2.38-2.14 4-2.14 0-.99-.44-1.34-1.39-1.34-.69.01-1.36.25-1.9.67l-.04-1.38c.67-.31 1.4-.47 2.14-.47 2.5 0 2.67 1.29 2.67 3.42 0 .98 0 1.97.1 2.94h-1.41zm-.85-2.87c-.73 0-1.78.13-1.78 1.08 0 .58.52.76 1.01.76 1.06 0 1.46-.89 1.46-1.83h-.69zM45.5 4.2c-1.78 0-1.31 3.92-1.31 4.82H42.6V2.79h1.42v1.42c.14-.84.83-1.48 1.68-1.56.16 0 .33 0 .49.05v1.62c-.22-.1-.46-.15-.69-.13zm4.73 4.97c-1.01.06-1.88-.7-1.95-1.71V3.98H47.1V2.8h1.18V1.56l1.59-.52v1.78h1.42v1.17h-1.42v2.89c0 .52.15 1.03.76 1.03.25.01.51-.05.73-.17v1.28c-.37.1-.75.15-1.14.15zm6.38-.15V5.69c0-.75 0-1.78-1.03-1.78-2.01 0-1.41 4.07-1.41 5.11h-1.6V2.79h1.52v.89c.46-.67 1.23-1.06 2.04-1.02 1.49 0 2.09 1.09 2.09 2.44v3.92h-1.6zm4.08-2.61c.02.89.76 1.59 1.65 1.57h.13c.71-.02 1.41-.22 2.02-.59v1.32c-.65.34-1.38.51-2.12.49a2.95 2.95 0 01-3.21-2.67 2.62 2.62 0 010-.56c0-1.78.94-3.27 2.86-3.27 2.36 0 2.93 1.71 2.93 3.75l-4.25-.04zm1.42-2.58c-.77-.02-1.41.6-1.42 1.37v.09h2.72c-.04-.79-.42-1.46-1.3-1.46zm6.63.37c-1.78 0-1.31 3.92-1.31 4.82h-1.6V2.79h1.42v1.42c.15-.84.84-1.47 1.68-1.56.16 0 .33 0 .49.05v1.62c-.21-.1-.45-.15-.69-.13zm5.6-2.53V.12h1.6v1.55h-1.6zm0 7.35V2.79h1.6v6.23h-1.6zm7.23 0V5.69c0-.75 0-1.78-1.04-1.78-2.01 0-1.41 4.07-1.41 5.11h-1.59V2.79h1.55v.89c.46-.66 1.22-1.03 2.02-1 1.48 0 2.09 1.09 2.09 2.44v3.92l-1.61-.03zm14.56 0V2.06l-2.25 6.96h-1.6l-2.26-6.96v6.93h-1.6V.6h2.67l1.98 6.38L95.09.6h2.67v8.43h-1.63zm4.3-2.61c.02.89.76 1.59 1.65 1.57h.13a4.27 4.27 0 002.05-.62v1.32c-.65.34-1.38.51-2.12.49a2.95 2.95 0 01-3.21-2.67 2.62 2.62 0 010-.56c0-1.78.94-3.27 2.86-3.27 2.35 0 2.93 1.71 2.93 3.75h-4.28zm1.38-2.58c-.77 0-1.39.64-1.38 1.41v.06h2.67c0-.8-.41-1.47-1.29-1.47zm8.16 5.19v-.74c-.45.58-1.15.91-1.89.89-1.9 0-2.58-1.61-2.58-3.27s.68-3.23 2.58-3.23c.72-.02 1.41.32 1.84.89V0h1.59v9.02h-1.55zm-1.49-5.11c-1.02 0-1.33 1.14-1.33 1.98s.3 2.02 1.35 2.02 1.41-1.15 1.41-2.02-.4-1.98-1.43-1.98zm4.56-2.24V.12h1.62v1.55h-1.62zm0 7.35V2.79h1.62v6.23h-1.62zm5.69.15c-2 0-3.03-1.39-3.03-3.29s1.07-3.21 2.97-3.21c.53 0 1.05.06 1.56.2l-.14 1.28c-.34-.16-.72-.23-1.09-.23-1.11 0-1.62.96-1.62 1.96s.47 2.04 1.65 2.04c.43-.01.85-.11 1.24-.28l.07 1.33c-.52.15-1.06.22-1.6.2zm6.74-.15c-.04-.31-.07-.62-.07-.93-.4.68-1.13 1.1-1.92 1.09-1.09.1-2.05-.7-2.15-1.78v-.06c0-2.26 2.39-2.14 4-2.14 0-.99-.44-1.34-1.39-1.34-.69.01-1.35.25-1.9.67l-.05-1.38c.67-.31 1.4-.47 2.14-.47 2.5 0 2.67 1.29 2.67 3.42 0 .98 0 1.97.1 2.94h-1.43zm-.83-2.87c-.73 0-1.78.13-1.78 1.08 0 .58.52.76 1.01.76 1.07 0 1.46-.89 1.46-1.83h-.69zm6.09 3.02c-1.01.07-1.88-.69-1.95-1.7V3.98h-1.18V2.8h1.18V1.56l1.6-.52v1.78h1.42v1.17h-1.42v2.89c0 .52.14 1.03.75 1.03.25.01.51-.05.73-.17l.05 1.28c-.39.1-.78.15-1.18.15zm2.2-7.5V.12h1.6v1.55h-1.6zm0 7.35V2.79h1.6v6.23h-1.6zm6.03.15c-1.69.09-3.13-1.22-3.22-2.91v-.3c0-1.78 1.44-3.22 3.22-3.22s3.22 1.44 3.22 3.22a3.072 3.072 0 01-2.92 3.21h-.3zm0-5.25c-.91.05-1.61.82-1.56 1.73v.11c0 1.01.31 2.15 1.55 2.15s1.55-1.12 1.55-2.15c.12-.9-.51-1.72-1.41-1.84-.05 0-.09-.01-.14-.01zm8.62 5.1V5.69c0-.75 0-1.78-1.04-1.78-2 0-1.41 4.07-1.41 5.11h-1.6V2.79h1.51v.89c.46-.66 1.22-1.03 2.02-1 1.49 0 2.09 1.09 2.09 2.44v3.92l-1.57-.03z" fill="#005eb8" stroke-width="0"/></svg>