<?xml version="1.0" encoding="UTF-8"?>
<svg id="_レイヤー_2" data-name="レイヤー 2" xmlns="http://www.w3.org/2000/svg" viewBox="0 0 54.29 54.29">
  <defs>
    <style>
      .cls-1 {
        fill: #000;
      }

      .cls-1, .cls-2 {
        stroke-width: 0px;
      }

      .cls-2 {
        fill: #fff;
      }
    </style>
  </defs>
  <g id="contents">
    <g>
      <g>
        <path class="cls-1" d="M27.14,53.79C12.45,53.79.5,41.83.5,27.14S12.45.5,27.14.5s26.64,11.95,26.64,26.64-11.95,26.64-26.64,26.64Z"/>
        <path class="cls-2" d="M27.14,1c14.42,0,26.14,11.73,26.14,26.14s-11.73,26.14-26.14,26.14S1,41.56,1,27.14,12.73,1,27.14,1M27.14,0C12.15,0,0,12.15,0,27.14s12.15,27.14,27.14,27.14,27.14-12.15,27.14-27.14S42.13,0,27.14,0h0Z"/>
      </g>
      <polygon class="cls-2" points="20.56 36.19 38.65 27.14 20.56 18.1 20.56 36.19"/>
    </g>
  </g>
</svg>