<?xml version="1.0" encoding="UTF-8"?>
<svg id="_レイヤー_2" data-name="レイヤー 2" xmlns="http://www.w3.org/2000/svg" viewBox="0 0 21 21">
  <defs>
    <style>
      .cls-1 {
        stroke-linejoin: round;
      }

      .cls-1, .cls-2, .cls-3 {
        fill: none;
        stroke: #333;
      }

      .cls-2, .cls-3 {
        stroke-miterlimit: 10;
      }

      .cls-3 {
        stroke-linecap: round;
      }
    </style>
  </defs>
  <g id="contents">
    <g>
      <circle class="cls-2" cx="10.5" cy="10.5" r="10"/>
      <path class="cls-3" d="M.72,8.62c2.5-2.54,5.96-4.12,9.78-4.12s7.28,1.57,9.78,4.12"/>
      <path class="cls-3" d="M20.28,12.38c-2.5,2.54-5.96,4.12-9.78,4.12S3.22,14.92.72,12.38"/>
      <path class="cls-3" d="M8.52,20.27c-2.54-2.5-4.12-5.96-4.12-9.78S5.98,3.22,8.52.72"/>
      <path class="cls-3" d="M12.28.72c2.54,2.5,4.12,5.96,4.12,9.78,0,3.82-1.57,7.28-4.12,9.78"/>
      <line class="cls-1" x1=".5" y1="10.5" x2="20.5" y2="10.5"/>
      <line class="cls-3" x1="10.5" y1=".5" x2="10.5" y2="20.5"/>
    </g>
  </g>
</svg>