<?xml version="1.0" encoding="UTF-8"?>
<svg id="_レイヤー_2" data-name="レイヤー 2" xmlns="http://www.w3.org/2000/svg" viewBox="0 0 149.19 40">
  <defs>
    <style>
      .cls-1 {
        fill: #005eb8;
        stroke-width: 0px;
      }
    </style>
  </defs>
  <g id="contents">
    <g>
      <path class="cls-1" d="M7.46,37.46H1.97c-.7.06-1.22.67-1.16,1.37.05.62.54,1.11,1.16,1.16h10.68c3.85,0,4.31-3.09,4.31-3.09l4.61-19.86c.01-.11.01-.22,0-.33,0-.8-.65-1.45-1.45-1.45,0,0,0,0,0,0h-5.72c-.43.01-.8.32-.89.74l-1.78,6.95-3.08-7.12c-.18-.32-.52-.52-.89-.52H2.56c-.82,0-1.49.67-1.51,1.49,0,.14.02.28.05.42l6.35,20.23Z"/>
      <path class="cls-1" d="M54.16,37.46h-5.5c-.7.06-1.22.67-1.16,1.37.05.62.54,1.11,1.16,1.16h10.68c3.85,0,4.31-3.09,4.31-3.09l4.6-19.86c.01-.11.01-.22,0-.33,0-.8-.65-1.45-1.45-1.45,0,0,0,0,0,0h-5.72c-.44,0-.82.31-.89.74l-1.78,6.95-3.08-7.12c-.18-.32-.52-.52-.89-.52h-5.16c-.85,0-1.53.69-1.53,1.54,0,.14.02.28.05.42l6.36,20.19Z"/>
      <path class="cls-1" d="M26.13,38.53c-1.33,0-2.41-1.07-2.41-2.4v-19.78c0-.59.47-1.07,1.06-1.08,0,0,.02,0,.03,0h7.89c.59,0,1.07.48,1.07,1.07,0,0,0,0,0,0v17.48c.06.77.74,1.35,1.51,1.29.69-.05,1.23-.6,1.29-1.29v-17.48c0-.59.48-1.08,1.08-1.08,0,0,0,0,0,0h6.81c.59,0,1.08.48,1.08,1.08v21.14c-.02.58-.5,1.04-1.08,1.04h-18.34Z"/>
      <path class="cls-1" d="M91.02,15.28h-19.67c-.75,0-1.37.6-1.37,1.35,0,0,0,0,0,0v6.68c0,.75.62,1.36,1.37,1.36h6.33c.74,0,1.33-.6,1.33-1.33,0,0,0-.02,0-.03v-2.89c0-.66.36-1.26.94-1.57.57-.34,1.24-.46,1.89-.35,1.89.29,1.78,2.56,1.78,2.56.15,1.34-.61,2.61-1.85,3.13l-10.23,4.63c-.97.33-1.65,1.21-1.71,2.23v6.06c-.03.75.55,1.38,1.3,1.4.03,0,.05,0,.08,0h10.4c.5,0,.96-.27,1.19-.71.24.44.69.71,1.19.71h7.05c.75.01,1.36-.59,1.37-1.33,0-.02,0-.05,0-.07v-20.46c0-.76-.6-1.37-1.36-1.38-.01,0-.02,0-.04,0ZM83.63,32.72c.08,1.28-.89,2.38-2.17,2.46-1.28.08-2.38-.89-2.46-2.17,0-.1,0-.19,0-.29v-2.36c.08-1.28,1.18-2.25,2.46-2.17,1.17.07,2.1,1,2.17,2.17v2.36Z"/>
      <path class="cls-1" d="M147.81,15.28h-19.67c-.75,0-1.36.6-1.36,1.34,0,0,0,.01,0,.02v6.68c0,.75.61,1.36,1.36,1.36h6.33c.74,0,1.34-.6,1.34-1.34,0,0,0-.01,0-.02v-2.89c0-.66.36-1.26.94-1.57.56-.34,1.22-.46,1.87-.35,1.9.29,1.78,2.56,1.78,2.56.15,1.34-.6,2.61-1.84,3.13l-10.24,4.63c-.97.33-1.64,1.21-1.71,2.23v6.06c-.03.75.55,1.38,1.3,1.41.03,0,.06,0,.09,0h10.4c.5,0,.96-.27,1.19-.71.24.44.69.71,1.19.71h7.05c.75,0,1.35-.61,1.35-1.35,0,0,0,0,0,0v-20.46c.02-.76-.57-1.4-1.33-1.42-.02,0-.03,0-.05,0ZM140.46,32.72c.08,1.28-.89,2.38-2.17,2.46-1.28.08-2.38-.89-2.46-2.17,0-.1,0-.19,0-.29v-2.36c.08-1.28,1.18-2.25,2.46-2.17,1.17.07,2.1,1,2.17,2.17v2.36Z"/>
      <path class="cls-1" d="M113.77,16.49c0-.67.54-1.21,1.21-1.22h6.92c.67,0,1.21.55,1.22,1.22v20.8c0,.68-.54,1.23-1.22,1.24-.02,0-.03,0-.05,0h-5.42c-.68,0-1.23-.55-1.23-1.23h0v-16.14c-.05-.43-.43-.74-.86-.7-.37.04-.66.33-.7.7v16.13c0,.68-.54,1.23-1.22,1.24,0,0-.02,0-.03,0h-5.34c-.67,0-1.22-.55-1.22-1.22,0,0,0,0,0,0v-16.14c-.05-.43-.43-.74-.86-.7-.37.04-.66.33-.7.7v16.13c0,.67-.53,1.22-1.2,1.24h-6.09c-.67,0-1.21-.55-1.21-1.23h0v-20.81c0-.67.55-1.22,1.23-1.22h6.54c.67,0,1.21.55,1.22,1.22,0-.67.55-1.22,1.23-1.22h6.48c.68-.03,1.25.49,1.29,1.16,0,.02,0,.04,0,.05Z"/>
      <path class="cls-1" d="M4.72,5.69v3.34h-1.68v-3.34L0,.6h1.96l1.98,3.56L5.93.6h1.78l-2.99,5.09Z"/>
      <path class="cls-1" d="M10.26,9.17c-1.69.11-3.14-1.18-3.25-2.86,0-.12,0-.24,0-.36-.1-1.71,1.2-3.18,2.91-3.29.1,0,.2,0,.3,0,1.71-.07,3.16,1.26,3.23,2.97,0,.11,0,.21,0,.32.09,1.69-1.22,3.13-2.91,3.22-.09,0-.19,0-.28,0ZM10.26,3.92c-.91.05-1.6.83-1.55,1.74,0,.03,0,.07,0,.1,0,1.01.31,2.15,1.54,2.15s1.56-1.13,1.56-2.16c.11-.9-.53-1.72-1.44-1.83-.04,0-.08,0-.12-.01h0Z"/>
      <path class="cls-1" d="M18.76,9.02v-.89h0c-.48.65-1.23,1.03-2.04,1.04-1.49,0-2.09-1.09-2.09-2.44v-3.93h1.6v3.33c0,.75,0,1.78,1.03,1.78,2.02,0,1.41-4.07,1.41-5.11h1.6v6.23h-1.52Z"/>
      <path class="cls-1" d="M24.68,4.2c-1.82,0-1.31,3.92-1.31,4.82h-1.6V2.79h1.42v1.42h0c.14-.84.83-1.48,1.68-1.56.16,0,.33,0,.49.05v1.62c-.21-.1-.45-.14-.69-.13Z"/>
      <path class="cls-1" d="M31.54,5.82v3.2h-1.67V.6h2.12c1.78,0,3.48.49,3.48,2.54.02,2.47-1.98,2.68-3.92,2.68ZM32.13,1.92h-.59v2.57h.59c.89,0,1.59-.29,1.59-1.25s-.72-1.32-1.59-1.32Z"/>
      <path class="cls-1" d="M39.93,9.02c-.05-.31-.07-.62-.07-.93h0c-.4.69-1.14,1.11-1.94,1.09-1.08.1-2.04-.7-2.14-1.78,0-.02,0-.04,0-.07,0-2.26,2.38-2.14,4-2.14,0-.99-.44-1.34-1.39-1.34-.69.01-1.36.25-1.9.67l-.04-1.38c.67-.31,1.4-.47,2.14-.47,2.5,0,2.67,1.29,2.67,3.42,0,.98,0,1.97.1,2.94h-1.41ZM39.08,6.15c-.73,0-1.78.13-1.78,1.08,0,.58.52.76,1.01.76,1.06,0,1.46-.89,1.46-1.83h-.69Z"/>
      <path class="cls-1" d="M45.5,4.2c-1.78,0-1.31,3.92-1.31,4.82h-1.59V2.79h1.42v1.42h0c.14-.84.83-1.48,1.68-1.56.16,0,.33,0,.49.05v1.62c-.22-.1-.46-.15-.69-.13Z"/>
      <path class="cls-1" d="M50.23,9.17c-1.01.06-1.88-.7-1.95-1.71,0-.11,0-.21,0-.32v-3.16h-1.18v-1.18h1.18v-1.24l1.59-.52v1.78h1.42v1.17h-1.42v2.89c0,.52.15,1.03.76,1.03.25.01.51-.05.73-.17v1.28c-.37.1-.75.15-1.14.15Z"/>
      <path class="cls-1" d="M56.61,9.02v-3.33c0-.75,0-1.78-1.03-1.78-2.01,0-1.41,4.07-1.41,5.11h-1.6V2.79h1.52v.89h0c.46-.67,1.23-1.06,2.04-1.02,1.49,0,2.09,1.09,2.09,2.44v3.92h-1.6Z"/>
      <path class="cls-1" d="M60.69,6.41c.02.89.76,1.59,1.65,1.57.04,0,.09,0,.13,0,.71-.02,1.41-.22,2.02-.59v1.32c-.65.34-1.38.51-2.12.49-1.62.15-3.06-1.04-3.21-2.67-.02-.19-.02-.37,0-.56,0-1.78.94-3.27,2.86-3.27,2.36,0,2.93,1.71,2.93,3.75l-4.25-.04ZM62.11,3.83c-.77-.02-1.41.6-1.42,1.37,0,.03,0,.06,0,.09h2.72c-.04-.79-.42-1.46-1.3-1.46Z"/>
      <path class="cls-1" d="M68.74,4.2c-1.78,0-1.31,3.92-1.31,4.82h-1.6V2.79h1.42v1.42h0c.15-.84.84-1.47,1.68-1.56.16,0,.33,0,.49.05v1.62c-.21-.1-.45-.15-.69-.13Z"/>
      <path class="cls-1" d="M74.34,1.67V.12h1.6v1.55h-1.6ZM74.34,9.02V2.79h1.6v6.23h-1.6Z"/>
      <path class="cls-1" d="M81.57,9.02v-3.33c0-.75,0-1.78-1.04-1.78-2.01,0-1.41,4.07-1.41,5.11h-1.59V2.79h1.55v.89h0c.46-.66,1.22-1.03,2.02-1,1.48,0,2.09,1.09,2.09,2.44v3.92l-1.61-.03Z"/>
      <path class="cls-1" d="M96.13,9.02V2.06h0l-2.25,6.96h-1.6l-2.26-6.96h0v6.93h-1.6V.6h2.67l1.98,6.38h0l2.02-6.38h2.67v8.43h-1.63Z"/>
      <path class="cls-1" d="M100.43,6.41c.02.89.76,1.59,1.65,1.57.04,0,.09,0,.13,0,.72-.03,1.43-.24,2.05-.62v1.32c-.65.34-1.38.51-2.12.49-1.62.15-3.06-1.04-3.21-2.67-.02-.19-.02-.37,0-.56,0-1.78.94-3.27,2.86-3.27,2.35,0,2.93,1.71,2.93,3.75h-4.28ZM101.81,3.83c-.77,0-1.39.64-1.38,1.41,0,.02,0,.04,0,.06h2.67c0-.8-.41-1.47-1.29-1.47Z"/>
      <path class="cls-1" d="M109.97,9.02v-.74h0c-.45.58-1.15.91-1.89.89-1.9,0-2.58-1.61-2.58-3.27s.68-3.23,2.58-3.23c.72-.02,1.41.32,1.84.89h0V0h1.59v9.02h-1.55ZM108.48,3.91c-1.02,0-1.33,1.14-1.33,1.98s.3,2.02,1.35,2.02,1.41-1.15,1.41-2.02-.4-1.98-1.43-1.98Z"/>
      <path class="cls-1" d="M113.04,1.67V.12h1.62v1.55h-1.62ZM113.04,9.02V2.79h1.62v6.23h-1.62Z"/>
      <path class="cls-1" d="M118.73,9.17c-2,0-3.03-1.39-3.03-3.29s1.07-3.21,2.97-3.21c.53,0,1.05.06,1.56.2l-.14,1.28c-.34-.16-.72-.23-1.09-.23-1.11,0-1.62.96-1.62,1.96s.47,2.04,1.65,2.04c.43-.01.85-.11,1.24-.28l.07,1.33c-.52.15-1.06.22-1.6.2Z"/>
      <path class="cls-1" d="M125.47,9.02c-.04-.31-.07-.62-.07-.93h0c-.4.68-1.13,1.1-1.92,1.09-1.09.1-2.05-.7-2.15-1.78,0-.02,0-.04,0-.06,0-2.26,2.39-2.14,4-2.14,0-.99-.44-1.34-1.39-1.34-.69.01-1.35.25-1.9.67l-.05-1.38c.67-.31,1.4-.47,2.14-.47,2.5,0,2.67,1.29,2.67,3.42,0,.98,0,1.97.1,2.94h-1.43ZM124.64,6.15c-.73,0-1.78.13-1.78,1.08,0,.58.52.76,1.01.76,1.07,0,1.46-.89,1.46-1.83h-.69Z"/>
      <path class="cls-1" d="M130.73,9.17c-1.01.07-1.88-.69-1.95-1.7,0-.11,0-.21,0-.32v-3.17h-1.18v-1.18h1.18v-1.24l1.6-.52v1.78h1.42v1.17h-1.42v2.89c0,.52.14,1.03.75,1.03.25.01.51-.05.73-.17l.05,1.28c-.39.1-.78.15-1.18.15Z"/>
      <path class="cls-1" d="M132.93,1.67V.12h1.6v1.55h-1.6ZM132.93,9.02V2.79h1.6v6.23h-1.6Z"/>
      <path class="cls-1" d="M138.96,9.17c-1.69.09-3.13-1.22-3.22-2.91,0-.1,0-.2,0-.3,0-1.78,1.44-3.22,3.22-3.22s3.22,1.44,3.22,3.22c.08,1.69-1.23,3.13-2.92,3.21-.1,0-.2,0-.3,0ZM138.96,3.92c-.91.05-1.61.82-1.56,1.73,0,.04,0,.07,0,.11,0,1.01.31,2.15,1.55,2.15s1.55-1.12,1.55-2.15c.12-.9-.51-1.72-1.41-1.84-.05,0-.09-.01-.14-.01h0Z"/>
      <path class="cls-1" d="M147.58,9.02v-3.33c0-.75,0-1.78-1.04-1.78-2,0-1.41,4.07-1.41,5.11h-1.6V2.79h1.51v.89h0c.46-.66,1.22-1.03,2.02-1,1.49,0,2.09,1.09,2.09,2.44v3.92l-1.57-.03Z"/>
    </g>
  </g>
</svg>