<?xml version="1.0" encoding="UTF-8"?>
<svg id="_レイヤー_2" data-name="レイヤー 2" xmlns="http://www.w3.org/2000/svg" xmlns:xlink="http://www.w3.org/1999/xlink" viewBox="0 0 300 108.86">
  <defs>
    <style>
      .cls-1 {
        fill: url(#_新規グラデーションスウォッチ_2);
      }

      .cls-1, .cls-2, .cls-3, .cls-4, .cls-5 {
        stroke-width: 0px;
      }

      .cls-2 {
        fill: url(#_新規グラデーションスウォッチ_2-4);
      }

      .cls-3 {
        fill: url(#_新規グラデーションスウォッチ_2-2);
      }

      .cls-4 {
        fill: url(#_新規グラデーションスウォッチ_2-3);
      }

      .cls-5 {
        fill: #81c5ed;
      }
    </style>
    <linearGradient id="_新規グラデーションスウォッチ_2" data-name="新規グラデーションスウォッチ 2" x1="45.86" y1="56.02" x2="47.83" y2="-.34" gradientUnits="userSpaceOnUse">
      <stop offset=".02" stop-color="#b6dcf4"/>
      <stop offset=".45" stop-color="#00abe6"/>
      <stop offset=".85" stop-color="#8177b0"/>
    </linearGradient>
    <linearGradient id="_新規グラデーションスウォッチ_2-2" data-name="新規グラデーションスウォッチ 2" x1="125.53" y1="55.17" x2="127.45" y2=".03" xlink:href="#_新規グラデーションスウォッチ_2"/>
    <linearGradient id="_新規グラデーションスウォッチ_2-3" data-name="新規グラデーションスウォッチ 2" x1="203.59" y1="55.85" x2="205.58" y2="-1.11" xlink:href="#_新規グラデーションスウォッチ_2"/>
    <linearGradient id="_新規グラデーションスウォッチ_2-4" data-name="新規グラデーションスウォッチ 2" x1="264.39" y1="54.93" x2="266.31" y2="-.2" xlink:href="#_新規グラデーションスウォッチ_2"/>
  </defs>
  <g id="contents">
    <g>
      <g>
        <path class="cls-1" d="M92.12,54.75c-4.14-2.5-6.93-5.7-8.78-9.12H29.04c-2.32,0-3.44-3.34-1.41-4.85,2.12-1.52,26.3-17.41,34.4-23.37,8.09-5.87,5.26-17.4-4.56-17.4H1.83v9.2h35.92c2.23,0,3.34,3.24,1.32,4.76-2.02,1.52-26.2,17.4-34.3,23.37-8.19,5.87-5.26,17.4,4.55,17.4h42.87s39.94.01,39.94.01Z"/>
        <path class="cls-3" d="M140.85,31.97h-37.23v1.32c0,8.09,3.54,12.34,11.43,12.34h52.14v9.11h-53.05c-20.33,0-29.14-9.11-29.14-23.78v-7.19c0-14.57,8.8-23.77,29.14-23.77h11.03c19.63,0,29.14,6.87,29.14,17.6,0,7.49-5.16,14.36-13.46,14.36ZM115.05,9.2c-7.89,0-11.43,4.15-11.43,12.25v1.31h24.79c4.86,0,7.29-2.33,7.29-5.56,0-4.75-4.15-7.99-11.53-7.99h-9.11Z"/>
        <path class="cls-4" d="M237.79.01h-36.13c-20.34-.01-29.14,9.19-29.14,22.87v31.88s.01-.03.01-.03h18.61V21.45c0-8.1,3.54-12.25,11.43-12.25h26.42c1.84-3.44,4.64-6.67,8.8-9.19Z"/>
        <path class="cls-2" d="M300,23.77v7.19c0,14.67-8.8,23.78-29.14,23.78h-11.03c-20.33,0-29.13-9.11-29.13-23.78v-7.19c0-14.57,8.8-23.77,29.13-23.77h11.03c20.34,0,29.14,9.2,29.14,23.77ZM281.38,33.29v-11.84c0-8.1-3.54-12.25-11.53-12.25h-9.11c-7.89,0-11.43,4.15-11.43,12.25v11.84c0,8.09,3.54,12.34,11.43,12.34h9.11c7.99,0,11.53-4.25,11.53-12.34Z"/>
      </g>
      <g>
        <path class="cls-5" d="M73.22,89.18l-2.92,4.48c-2.28-1.56-6.4-4.28-9.12-5.68l2.92-4.44c2.68,1.44,7.08,4.2,9.12,5.64ZM76.46,98.34c6.8-3.8,12.36-9.28,15.56-15l3.08,5.44c-3.72,5.52-9.36,10.6-15.92,14.36-4.08,2.32-9.8,4.32-13.36,4.96l-3-5.28c4.48-.76,9.28-2.12,13.64-4.48ZM79.38,80.14l-3,4.44c-2.24-1.56-6.4-4.28-9.04-5.76l2.92-4.4c2.64,1.48,7.04,4.28,9.12,5.72Z"/>
        <path class="cls-5" d="M119.06,75.42c-.08.88-.12,1.76-.12,3.04v13.52c0,1,.04,2.56.12,3.48h-5.92c.04-.76.2-2.32.2-3.52v-13.48c0-.76-.04-2.16-.16-3.04h5.88ZM137.5,75.06c-.08,1.12-.16,2.4-.16,4v7.92c0,8.6-1.68,12.28-4.64,15.56-2.64,2.92-6.8,4.88-9.72,5.8l-4.2-4.4c4-.92,7.36-2.44,9.8-5.04,2.72-3,3.24-6,3.24-12.24v-7.6c0-1.6-.08-2.88-.24-4h5.92Z"/>
        <path class="cls-5" d="M157.18,87.58c1.44.12,4.36.24,6.44.24h21.48c1.84,0,3.64-.16,4.68-.24v6.28c-.96-.04-3-.2-4.68-.2h-21.48c-2.28,0-4.96.08-6.44.2v-6.28Z"/>
        <path class="cls-5" d="M234.46,79.94c-.32.48-1.04,1.68-1.4,2.52-1.36,3.12-3.6,7.36-6.28,10.96,3.96,3.44,8.8,8.56,11.16,11.44l-4.56,4c-2.6-3.6-6.32-7.72-10.08-11.32-4.24,4.44-9.56,8.64-15.04,11.2l-4.12-4.32c6.44-2.4,12.64-7.28,16.4-11.48,2.64-3,5.08-6.96,5.96-9.8h-13.56c-1.68,0-3.88.24-4.72.28v-5.68c1.08.16,3.52.28,4.72.28h14.12c1.72,0,3.32-.2,4.12-.48l.48.36c-.68-1.28-1.48-2.68-2.2-3.76l3.16-1.32c1.04,1.52,2.52,4.12,3.2,5.48l-2.28.96.92.68ZM237.74,78.22c-.84-1.64-2.16-4-3.24-5.48l3.16-1.32c1.08,1.52,2.52,4.04,3.24,5.44l-3.16,1.36Z"/>
      </g>
    </g>
  </g>
</svg>