<?xml version="1.0" encoding="UTF-8"?>
<svg id="_レイヤー_2" data-name="レイヤー 2" xmlns="http://www.w3.org/2000/svg" xmlns:xlink="http://www.w3.org/1999/xlink" viewBox="0 0 307.94 29.5">
  <defs>
    <style>
      .cls-1 {
        fill: url(#_新規グラデーションスウォッチ_2);
      }

      .cls-1, .cls-2, .cls-3, .cls-4, .cls-5 {
        stroke-width: 0px;
      }

      .cls-2 {
        fill: url(#_新規グラデーションスウォッチ_2-4);
      }

      .cls-3 {
        fill: url(#_新規グラデーションスウォッチ_2-2);
      }

      .cls-4 {
        fill: url(#_新規グラデーションスウォッチ_2-3);
      }

      .cls-5 {
        fill: #81c5ed;
      }
    </style>
    <linearGradient id="_新規グラデーションスウォッチ_2" data-name="新規グラデーションスウォッチ 2" x1="24.71" y1="30.18" x2="25.77" y2="-.19" gradientUnits="userSpaceOnUse">
      <stop offset=".02" stop-color="#b6dcf4"/>
      <stop offset=".45" stop-color="#00abe6"/>
      <stop offset=".85" stop-color="#8177b0"/>
    </linearGradient>
    <linearGradient id="_新規グラデーションスウォッチ_2-2" data-name="新規グラデーションスウォッチ 2" x1="67.63" y1="29.72" x2="68.67" y2=".02" xlink:href="#_新規グラデーションスウォッチ_2"/>
    <linearGradient id="_新規グラデーションスウォッチ_2-3" data-name="新規グラデーションスウォッチ 2" x1="109.69" y1="30.09" x2="110.76" y2="-.6" xlink:href="#_新規グラデーションスウォッチ_2"/>
    <linearGradient id="_新規グラデーションスウォッチ_2-4" data-name="新規グラデーションスウォッチ 2" x1="142.44" y1="29.6" x2="143.48" y2="-.11" xlink:href="#_新規グラデーションスウォッチ_2"/>
  </defs>
  <g id="contents">
    <g>
      <g>
        <path class="cls-5" d="M214.69.3v3.76h-10.37v25.42h-7.65V4.06h-10.37V.3h28.39Z"/>
        <path class="cls-5" d="M221.99.3h7.7v6.69h-7.7V.3ZM221.99,29.48V10.33h7.7v19.15h-7.7Z"/>
        <path class="cls-5" d="M258.95,6.86c8.4,0,12,3.81,12,9.83v12.79h-7.65v-13.76c0-3.34-1.46-5.06-4.77-5.06h-.17v18.82h-7.69V10.67h-2.3c-1.71,0-2.63.88-2.63,2.93v15.89h-7.7V11.92c0-2.89,1.51-5.06,5.56-5.06h15.35Z"/>
        <path class="cls-5" d="M302.38,20.08h-15.39v.54c0,3.34,1.46,5.1,4.72,5.1h12.38v3.76h-12.75c-8.4,0-12.04-3.76-12.04-9.83v-2.97c0-6.02,3.64-9.83,12.04-9.83h4.56c8.11,0,12.04,2.84,12.04,7.27,0,3.09-2.13,5.94-5.56,5.94ZM291.72,10.67c-3.26,0-4.72,1.71-4.72,5.06v.54h10.24c2.01,0,3.01-.96,3.01-2.3,0-1.97-1.71-3.3-4.77-3.3h-3.76Z"/>
      </g>
      <g>
        <path class="cls-1" d="M49.63,29.49c-2.23-1.34-3.74-3.07-4.73-4.91H15.65c-1.25,0-1.85-1.8-.76-2.61,1.14-.82,14.17-9.38,18.53-12.59,4.36-3.16,2.83-9.37-2.45-9.37H.99v4.96h19.35c1.2,0,1.8,1.75.71,2.56-1.09.82-14.12,9.37-18.48,12.59-4.41,3.16-2.83,9.38,2.45,9.38h23.1s21.52,0,21.52,0Z"/>
        <path class="cls-3" d="M75.88,17.22h-20.06v.71c0,4.36,1.91,6.65,6.16,6.65h28.09v4.91h-28.58c-10.95,0-15.7-4.91-15.7-12.81v-3.87c0-7.85,4.74-12.81,15.7-12.81h5.94c10.58,0,15.7,3.7,15.7,9.48,0,4.03-2.78,7.74-7.25,7.74ZM61.98,4.96c-4.25,0-6.16,2.24-6.16,6.6v.71h13.35c2.62,0,3.93-1.25,3.93-3,0-2.56-2.24-4.31-6.21-4.31h-4.91Z"/>
        <path class="cls-4" d="M128.11,0h-19.47c-10.96,0-15.7,4.95-15.7,12.32v17.18s0-.01,0-.01h10.02V11.56c0-4.36,1.9-6.6,6.16-6.6h14.24c.99-1.85,2.5-3.59,4.74-4.95Z"/>
        <path class="cls-2" d="M161.63,12.81v3.87c0,7.9-4.74,12.81-15.7,12.81h-5.94c-10.95,0-15.7-4.91-15.7-12.81v-3.87c0-7.85,4.74-12.81,15.7-12.81h5.94c10.96,0,15.7,4.96,15.7,12.81ZM151.6,17.93v-6.38c0-4.36-1.91-6.6-6.21-6.6h-4.91c-4.25,0-6.16,2.24-6.16,6.6v6.38c0,4.36,1.91,6.65,6.16,6.65h4.91c4.3,0,6.21-2.29,6.21-6.65Z"/>
      </g>
    </g>
  </g>
</svg>