<?xml version="1.0" encoding="UTF-8"?>
<svg id="_レイヤー_2" data-name="レイヤー 2" xmlns="http://www.w3.org/2000/svg" xmlns:xlink="http://www.w3.org/1999/xlink" viewBox="0 0 270 130">
  <defs>
    <style>
      .cls-1 {
        clip-path: url(#clippath);
      }

      .cls-2, .cls-3 {
        fill: none;
      }

      .cls-2, .cls-4, .cls-5, .cls-6 {
        stroke-width: 0px;
      }

      .cls-7 {
        stroke-linecap: round;
        stroke-linejoin: round;
      }

      .cls-7, .cls-3 {
        stroke: #005eb8;
      }

      .cls-7, .cls-5 {
        fill: #fff;
      }

      .cls-3 {
        stroke-miterlimit: 10;
      }

      .cls-4 {
        fill: #005eb8;
      }

      .cls-6 {
        fill: #eef2f4;
      }
    </style>
    <clipPath id="clippath">
      <rect class="cls-2" width="270" height="130"/>
    </clipPath>
  </defs>
  <g id="contents">
    <g class="cls-1">
      <circle class="cls-6" cx="133.67" cy="45.59" r="26.34"/>
      <g>
        <g>
          <g>
            <path class="cls-4" d="M227.41,88.08h0c0,3.03-2.46,5.49-5.49,5.49h-96.51c-3.03,0-5.49-2.46-5.49-5.49h0c0-1.45.57-2.84,1.59-3.87l11.12-11.21c.5-.51,1.19-.79,1.9-.79h78.27c.71,0,1.4.29,1.9.79l11.12,11.21c1.02,1.03,1.59,2.42,1.59,3.87Z"/>
            <g>
              <path class="cls-4" d="M215.39,17.6v48.65c0,2.22-1.81,4.03-4.03,4.03h-75.39c-2.22,0-4.03-1.81-4.03-4.03V17.6c0-2.23,1.81-4.03,4.03-4.03h75.39c2.22,0,4.03,1.8,4.03,4.03Z"/>
              <rect class="cls-5" x="135.98" y="21.15" width="75.36" height="40.64"/>
              <circle class="cls-5" cx="173.73" cy="17.36" r="1.4"/>
              <g>
                <g>
                  <path class="cls-7" d="M188.26,58.9v-13.99c0-2.94-2.39-5.33-5.33-5.33h-5.05l-4.22,5.18-4.15-5.18h-5.12c-2.94,0-5.33,2.39-5.33,5.33v13.99"/>
                  <circle class="cls-7" cx="173.66" cy="32.53" r="5.96"/>
                  <polygon class="cls-4" points="174.25 49.1 173.09 49.1 172.02 46.08 175.32 46.08 174.25 49.1"/>
                  <polygon class="cls-4" points="175.42 58.9 175.42 51.75 174.29 49.73 173.05 49.73 171.91 51.75 171.91 58.9 175.42 58.9"/>
                  <polygon class="cls-7" points="169.04 38.85 167.13 40.31 171 47.84 173.55 44.48 169.04 38.85"/>
                  <polygon class="cls-7" points="178.28 38.85 180.19 40.31 176.32 47.84 173.77 44.48 178.28 38.85"/>
                </g>
                <rect class="cls-3" x="138.62" y="24.05" width="70.09" height="34.86"/>
              </g>
            </g>
            <polygon class="cls-5" points="185.19 88.15 162.14 88.15 165.15 83.78 182.17 83.78 185.19 88.15"/>
          </g>
          <path class="cls-7" d="M197.82,3.06c-8.68,2.32-13.82,11.24-11.5,19.92.69,2.58,1.97,4.85,3.65,6.7l-2.35,5.25,5.73-2.41c3.7,2.33,8.33,3.18,12.89,1.96,8.68-2.32,13.82-11.24,11.5-19.92-2.32-8.68-11.24-13.82-19.92-11.5Z"/>
          <g>
            <circle class="cls-4" cx="194.67" cy="18.77" r="1.51"/>
            <circle class="cls-4" cx="202.02" cy="18.77" r="1.51"/>
            <circle class="cls-4" cx="209.38" cy="18.77" r="1.51"/>
          </g>
        </g>
        <g>
          <circle class="cls-7" cx="78.73" cy="23.26" r="20.76"/>
          <path class="cls-7" d="M42.59,127.5v-50.37h0c0-15.61,12.65-28.26,28.26-28.26,7.52,0,14.33,2.95,19.39,7.74l.03-.03.46.47c.08.08.16.16.24.24l21.54,21.95c2.02,2.06,4.78,3.21,7.65,3.21h30.82c5.48,0,10.42,4,10.9,9.47.54,6.16-4.31,11.33-10.36,11.33h-40.09c-2.86,0-5.61-1.15-7.62-3.18l-4.34-4.39c-.13-.13-.35-.04-.35.15v31.67"/>
        </g>
      </g>
    </g>
  </g>
</svg>