<?xml version="1.0" encoding="UTF-8"?>
<svg id="_レイヤー_2" data-name="レイヤー 2" xmlns="http://www.w3.org/2000/svg" xmlns:xlink="http://www.w3.org/1999/xlink" viewBox="0 0 270 130">
  <defs>
    <style>
      .cls-1 {
        clip-path: url(#clippath);
      }

      .cls-2 {
        fill: none;
      }

      .cls-2, .cls-3, .cls-4, .cls-5 {
        stroke-width: 0px;
      }

      .cls-6 {
        stroke-linecap: round;
        stroke-linejoin: round;
      }

      .cls-6, .cls-7, .cls-4, .cls-8 {
        fill: #fff;
      }

      .cls-6, .cls-7, .cls-8 {
        stroke: #005eb8;
      }

      .cls-9 {
        clip-path: url(#clippath-1);
      }

      .cls-10 {
        clip-path: url(#clippath-2);
      }

      .cls-3 {
        fill: #005eb8;
      }

      .cls-7, .cls-8 {
        stroke-miterlimit: 10;
      }

      .cls-8 {
        stroke-width: 1.74px;
      }

      .cls-5 {
        fill: #eef2f4;
      }
    </style>
    <clipPath id="clippath">
      <rect class="cls-2" width="270" height="130"/>
    </clipPath>
    <clipPath id="clippath-1">
      <rect class="cls-2" x="74.56" y="12.62" width="120.88" height="114.88"/>
    </clipPath>
    <clipPath id="clippath-2">
      <rect class="cls-2" x="74.56" y="12.62" width="120.88" height="114.88"/>
    </clipPath>
  </defs>
  <g id="contents">
    <g>
      <circle class="cls-5" cx="100.75" cy="45.59" r="26.34"/>
      <g class="cls-1">
        <g>
          <g class="cls-9">
            <path class="cls-7" d="M148.22,87.76l10.68-10.68s16.19,19.21,18.67,27.08,15.47,24.1,15.47,24.1l-24.74,16.47s-9.08-9.75-16.65-10.2c-7.57-.45-15.58-4.45-21.82-18.14-6.23-13.69-13.91-18.07-13.91-18.07l32.31-10.55Z"/>
          </g>
          <rect class="cls-6" x="102.99" y="63.47" width="16.73" height="8.06" rx="3.63" ry="3.63" transform="translate(22.27 -27.47) rotate(15.61)"/>
          <rect class="cls-6" x="100.76" y="74.85" width="16.73" height="8.06" rx="3.63" ry="3.63" transform="translate(-23.32 54.62) rotate(-25.48)"/>
          <rect class="cls-6" x="100.76" y="84.14" width="16.73" height="8.06" rx="3.63" ry="3.63" transform="translate(-27.31 55.52) rotate(-25.48)"/>
          <rect class="cls-6" x="102.72" y="92.13" width="16.73" height="8.06" rx="3.63" ry="3.63" transform="translate(-30.56 57.15) rotate(-25.48)"/>
          <g>
            <rect class="cls-3" x="107" y="12.62" width="56.09" height="99.22" rx="4.36" ry="4.36"/>
            <rect class="cls-4" x="111.35" y="23.27" width="47.39" height="78.1"/>
            <rect class="cls-4" x="126.79" y="17.11" width="16.51" height="2.48" rx=".55" ry=".55"/>
          </g>
          <g class="cls-10">
            <path class="cls-6" d="M163.67,106.46s-17.91-3.61-24.18-5.59c-2.19-.69-3.87-1.2-5.24-1.44-.75-.19-1.56-.19-2.35.05-2.35.7-3.69,3.17-2.99,5.52.21.69.57,1.29,1.03,1.78h-.01c1.31,1.44,2.91,2.62,4.67,3.47,1.35.65,3.37,1.63,5.31,2.62,2.22,1.12,4.34,2.25,5.27,2.88.31.21.69.57,1.14,1.04,2.93,3.05,8.57,10.73,12.66,12.47,4.71,2.01,9.9,1.32,9.9,1.32"/>
          </g>
          <path class="cls-6" d="M154.29,3.59c-16.95,4.54-27,21.96-22.46,38.9,1.35,5.04,3.85,9.47,7.13,13.09l-4.59,10.25,11.2-4.7c7.23,4.56,16.26,6.21,25.17,3.82,16.95-4.54,27-21.96,22.46-38.9-4.54-16.95-21.96-27-38.9-22.46Z"/>
          <g>
            <g>
              <path class="cls-3" d="M152.94,33.15l.47-.16c.19-.06.34-.18.46-.31.22-.19.3-.48.23-.75,0-.07-.03-.15-.05-.22l-1.3-3.37c-.05-.14-.14-.25-.24-.35-.08-.44-.14-.89-.17-1.35-.06.57-.09,1.15-.09,1.74,0,1.68.25,3.29.69,4.76Z"/>
              <path class="cls-3" d="M172.87,27.6c-.53,3.64-2.94,6.65-6.24,8.02-.13-.2-.36-.33-.61-.33-.03,0-.07,0-.1,0l-2.58.36c-.4.05-.68.42-.62.82l.13.91c.03.19.13.35.27.47h0s0,0,0,0c.12.1.28.16.45.16.03,0,.07,0,.1,0l2.58-.36c.31-.04.54-.27.61-.55,2.19-.83,4.06-2.29,5.4-4.16,0,0,.01,0,.02,0,.4-1.42.63-2.95.63-4.54,0-.27,0-.53-.02-.79Z"/>
              <path class="cls-3" d="M163.43,15.77c1.88.14,3.62.8,5.09,1.82-1.68-1.53-3.74-2.43-5.95-2.43-2.46,0-4.71,1.1-6.48,2.94,1.79-1.47,4.07-2.36,6.56-2.36.26,0,.52,0,.78.03Z"/>
              <path class="cls-3" d="M167.56,37.84c-.26.4-.69.68-1.19.75l-2.58.36c-.08.01-.15.02-.23.02-.24,0-.48-.05-.7-.15h-.34s-.19-.38-.19-.38c-.24-.25-.39-.57-.44-.91l-.13-.91c-.06-.45.05-.9.32-1.26.27-.36.67-.6,1.12-.66l2.58-.36c.08-.01.15-.02.23-.02.27,0,.52.06.75.18,3.26-1.58,5.3-4.89,5.24-8.58-.08-4.8-3.88-8.83-8.65-9.18-.24-.02-.47-.03-.71-.03-5.16,0-9.36,4.2-9.36,9.36,0,.49.04.99.13,1.5.1.13.17.28.23.43l1.3,3.37c.05.12.08.24.1.37.14.59-.05,1.21-.5,1.62-.23.25-.51.43-.83.54l-.47.16c1.66,4.46,5.21,7.54,9.32,7.54,3.67,0,6.89-2.46,8.72-6.15-1.09,1-2.34,1.81-3.72,2.38Z"/>
            </g>
            <path class="cls-3" d="M178.8,54.25h-32.58l1.32-7.73c.09-.55.43-1.03.92-1.3l6.71-3.16c.64-.3,1.33-.46,2.04-.46h11.19c.63,0,1.25.16,1.8.45l5.95,3.19c.51.25.88.72,1,1.27l1.65,7.72Z"/>
            <path class="cls-8" d="M168.17,42.94c0-.49.47-.94-.66-1.28-.38-.11-.64-.46-.62-.85,0-.05,0-.09,0-.14v-3.38h-8.32v3.38s0,0,0,0c0,.41-.26.77-.66.87-1.37.34-1.07.84-1.07,1.39l5.72,8,5.6-8Z"/>
            <ellipse class="cls-4" cx="162.57" cy="30.08" rx="7.37" ry="9.81"/>
            <path class="cls-3" d="M158.46,19.77s4.32,7.82,12.64,8.62l-.55-4.31-5.77-5.42-6.32,1.11Z"/>
            <path class="cls-3" d="M175.7,28.19l-1.27-.44s-.08-.02-.12-.03c.08-.54.12-1.09.12-1.65,0-6.83-5.84-12.31-12.78-11.74-5.93.49-10.61,5.46-10.78,11.4-.02.72.03,1.44.14,2.14l-.92.32c-.55.19-.84.76-.64,1.28l1.3,3.37c.2.52.82.79,1.37.6l1.27-.44c.19-.06.34-.18.46-.31.22-.19.3-.48.23-.75,0-.07-.03-.15-.05-.22l-1.3-3.37c-.05-.14-.14-.25-.24-.35-.12-.63-.18-1.27-.18-1.93,0-5.95,5.06-10.75,11.11-10.3,5.28.39,9.46,4.84,9.55,10.13.07,4.38-2.55,8.14-6.36,9.71-.15-.23-.42-.37-.71-.33l-2.58.36c-.4.05-.68.42-.62.82l.13.91c.03.19.13.35.27.47h0s0,0,0,0c.15.12.34.18.55.15l2.58-.36c.31-.04.54-.27.61-.55,2.19-.83,4.06-2.29,5.4-4.16.05.02.1.05.15.07l1.27.44c.56.19,1.17-.08,1.37-.6l1.3-3.37c.2-.52-.08-1.09-.64-1.28Z"/>
            <g>
              <path class="cls-3" d="M167.06,38c-.26.4-.02.28-.52.35l-.34.27c-1.07.81-2.31,1.28-3.63,1.28-4.07,0-7.37-4.39-7.37-9.81s3.3-9.81,7.37-9.81,7.37,4.39,7.37,9.81c0,.72-.06,1.42-.17,2.09.34-.4.65-.82.92-1.27.02-.27.03-.55.03-.82,0-5.84-3.65-10.59-8.15-10.59s-8.12,4.71-8.15,10.52l.52,1.35c.05.12.08.24.1.37.11.48,0,.98-.28,1.38,1.01,4.36,4.12,7.55,7.8,7.55,2.29,0,4.36-1.23,5.84-3.22-.28.14-1.05.43-1.34.55Z"/>
              <path class="cls-3" d="M170.42,32.89c-.33.38-.69.73-1.08,1.06-.3.93-.71,1.79-1.2,2.55.46-.24.91-.52,1.33-.82.41-.86.73-1.79.94-2.79Z"/>
            </g>
          </g>
        </g>
      </g>
    </g>
  </g>
</svg>