<svg id="_レイヤー_2" data-name="レイヤー 2" xmlns="http://www.w3.org/2000/svg" viewBox="0 0 270 130"><defs><clipPath id="clippath"><path stroke-width="0" fill="none" d="M0 0h270v130H0z"/></clipPath><style>.cls-1{stroke-linecap:round;stroke-linejoin:round}.cls-1,.cls-3{fill:none;stroke:#005eb8}.cls-6{stroke-width:0}.cls-3{stroke-miterlimit:10}.cls-6{fill:#fff}</style></defs><g id="contents"><circle cx="69.35" cy="45.59" r="26.34" fill="#eef2f4" stroke-width="0"/><g clip-path="url(#clippath)"><path d="M218.98 118.92c0 4.74-3.84 8.58-8.58 8.58H59.6c-4.74 0-8.58-3.84-8.58-8.58 0-2.27.89-4.44 2.49-6.05l17.37-17.52c.79-.79 1.86-1.24 2.97-1.24h122.3c1.12 0 2.19.45 2.97 1.24l17.38 17.52a8.61 8.61 0 012.49 6.05zM200.19 8.79v76.02c0 3.46-2.83 6.29-6.29 6.29H76.1c-3.46 0-6.29-2.83-6.29-6.29V8.79c0-3.48 2.83-6.29 6.29-6.29h117.8c3.46 0 6.29 2.81 6.29 6.29z" fill="#005eb8" stroke-width="0"/><path class="cls-6" d="M76.13 14.34h117.75v63.51H76.13z"/><circle class="cls-6" cx="135.1" cy="8.42" r="2.19"/><rect class="cls-3" x="149.61" y="23" width="34.64" height="7.7" rx="2" ry="2"/><rect class="cls-3" x="110.35" y="23" width="34.64" height="7.7" rx="2" ry="2"/><path class="cls-1" d="M102.27 26.85H85.74m16.53 13.85H85.74m52.71 0h-16.52m55.78 0h-16.52"/><rect class="cls-3" x="110.35" y="36.85" width="7.7" height="7.7" rx="2" ry="2"/><path class="cls-1" d="M111.89 40.7l1.66 1.93 2.96-3.85"/><rect class="cls-3" x="149.61" y="36.85" width="7.7" height="7.7" rx="2" ry="2"/><path class="cls-1" d="M151.15 40.7l1.66 1.93 2.96-3.85m-17.32 14.24h-16.52m55.78 0h-16.52"/><rect class="cls-3" x="110.35" y="49.17" width="7.7" height="7.7" rx="2" ry="2"/><path class="cls-1" d="M111.89 53.02l1.66 1.93 2.96-3.85"/><rect class="cls-3" x="149.61" y="49.17" width="7.7" height="7.7" rx="2" ry="2"/><path class="cls-1" d="M151.15 53.02l1.66 1.93 2.96-3.85m-17.32 14.24h-16.52m55.78 0h-16.52"/><rect class="cls-3" x="110.35" y="61.49" width="7.7" height="7.7" rx="2" ry="2"/><path class="cls-1" d="M111.89 65.34l1.66 1.92 2.96-3.85"/><rect class="cls-3" x="149.61" y="61.49" width="7.7" height="7.7" rx="2" ry="2"/><path class="cls-1" d="M151.15 65.34l1.66 1.92 2.96-3.85"/><path class="cls-6" d="M153.01 119.02h-36.02l4.71-6.83h26.6l4.71 6.83z"/></g></g></svg>