<svg id="_レイヤー_2" data-name="レイヤー 2" xmlns="http://www.w3.org/2000/svg" viewBox="0 0 270 130"><defs><clipPath id="clippath"><path stroke-width="0" fill="none" d="M0 0h270v130H0z"/></clipPath><style>.cls-4,.cls-5{stroke-width:0}.cls-7{stroke-linecap:round;stroke-linejoin:round;stroke:#005eb8}.cls-5,.cls-7{fill:#fff}.cls-4{fill:#005eb8}</style></defs><g clip-path="url(#clippath)" id="contents"><circle cx="133.67" cy="45.59" r="26.34" fill="#eef2f4" stroke-width="0"/><path class="cls-4" d="M227.41 88.08c0 3.03-2.46 5.49-5.49 5.49h-96.51a5.493 5.493 0 01-3.9-9.36L132.63 73c.5-.51 1.19-.79 1.9-.79h78.27c.71 0 1.4.29 1.9.79l11.12 11.21a5.497 5.497 0 011.59 3.87zM215.39 17.6v48.65c0 2.22-1.81 4.03-4.03 4.03h-75.39c-2.22 0-4.03-1.81-4.03-4.03V17.6a4.03 4.03 0 014.03-4.03h75.39c2.22 0 4.03 1.8 4.03 4.03z"/><path class="cls-5" d="M135.98 21.15h75.36v40.64h-75.36z"/><circle class="cls-5" cx="173.73" cy="17.36" r="1.4"/><path class="cls-7" d="M188.26 58.9V44.91c0-2.94-2.39-5.33-5.33-5.33h-5.05l-4.22 5.18-4.15-5.18h-5.12c-2.94 0-5.33 2.39-5.33 5.33V58.9"/><circle class="cls-7" cx="173.66" cy="32.53" r="5.96"/><path class="cls-4" d="M174.25 49.1h-1.16l-1.07-3.02h3.3l-1.07 3.02zm1.17 9.8v-7.15l-1.13-2.02h-1.24l-1.14 2.02v7.15h3.51z"/><path class="cls-7" d="M169.04 38.85l-1.91 1.46 3.87 7.53 2.55-3.36-4.51-5.63zm9.24 0l1.91 1.46-3.87 7.53-2.55-3.36 4.51-5.63z"/><path stroke-miterlimit="10" stroke="#005eb8" fill="none" d="M138.62 24.05h70.09v34.86h-70.09z"/><path class="cls-5" d="M185.19 88.15h-23.05l3.01-4.37h17.02l3.02 4.37z"/><path class="cls-7" d="M197.82 3.06c-8.68 2.32-13.82 11.24-11.5 19.92.69 2.58 1.97 4.85 3.65 6.7l-2.35 5.25 5.73-2.41a16.25 16.25 0 0012.89 1.96c8.68-2.32 13.82-11.24 11.5-19.92-2.32-8.68-11.24-13.82-19.92-11.5z"/><circle class="cls-4" cx="194.67" cy="18.77" r="1.51"/><circle class="cls-4" cx="202.02" cy="18.77" r="1.51"/><circle class="cls-4" cx="209.38" cy="18.77" r="1.51"/><circle class="cls-7" cx="78.73" cy="23.26" r="20.76"/><path class="cls-7" d="M42.59 127.5V77.13c0-15.61 12.65-28.26 28.26-28.26 7.52 0 14.33 2.95 19.39 7.74l.03-.03.46.47.24.24 21.54 21.95c2.02 2.06 4.78 3.21 7.65 3.21h30.82c5.48 0 10.42 4 10.9 9.47.54 6.16-4.31 11.33-10.36 11.33h-40.09c-2.86 0-5.61-1.15-7.62-3.18l-4.34-4.39a.205.205 0 00-.35.15v31.67"/></g></svg>